<svg>
<symbol id="facebook" viewBox="0 0 12 21" xmlns="http://www.w3.org/2000/svg">
<path d="M10.6484 12.2339L11.1953 8.64014H7.71875V6.29639C7.71875 5.28076 8.1875 4.34326 9.75 4.34326H11.3516V1.25732C11.3516 1.25732 9.90625 0.983887 8.53906 0.983887C5.6875 0.983887 3.8125 2.7417 3.8125 5.8667V8.64014H0.609375V12.2339H3.8125V20.9839H7.71875V12.2339H10.6484Z"/>
</symbol>

<symbol id="twitter" viewBox="0 0 20 18" xmlns="http://www.w3.org/2000/svg">
<path d="M17.9297 4.92139C17.9557 5.02555 17.9688 5.19482 17.9688 5.4292C17.9688 7.3042 17.513 9.1141 16.6016 10.8589C15.6641 12.7078 14.349 14.1792 12.6562 15.2729C10.8073 16.4969 8.6849 17.1089 6.28906 17.1089C3.9974 17.1089 1.90104 16.4969 0 15.2729C0.286458 15.299 0.611979 15.312 0.976562 15.312C2.8776 15.312 4.58333 14.7261 6.09375 13.5542C5.18229 13.5542 4.375 13.2938 3.67188 12.7729C2.99479 12.2261 2.52604 11.549 2.26562 10.7417C2.52604 10.7677 2.77344 10.7808 3.00781 10.7808C3.3724 10.7808 3.73698 10.7417 4.10156 10.6636C3.16406 10.4552 2.38281 9.97347 1.75781 9.21826C1.13281 8.46305 0.820312 7.60368 0.820312 6.64014V6.56201C1.39323 6.90055 2.00521 7.08285 2.65625 7.10889C2.10938 6.71826 1.66667 6.22347 1.32812 5.62451C0.989583 5.02555 0.820312 4.37451 0.820312 3.67139C0.820312 2.94222 1.01562 2.25212 1.40625 1.60107C2.42188 2.87712 3.65885 3.89274 5.11719 4.64795C6.60156 5.40316 8.17708 5.81982 9.84375 5.89795C9.79167 5.58545 9.76562 5.27295 9.76562 4.96045C9.76562 4.23128 9.94792 3.5542 10.3125 2.9292C10.6771 2.27816 11.1719 1.77035 11.7969 1.40576C12.4219 1.04118 13.099 0.858887 13.8281 0.858887C14.4271 0.858887 14.974 0.976074 15.4688 1.21045C15.9896 1.44482 16.4453 1.75732 16.8359 2.14795C17.7734 1.96566 18.6458 1.64014 19.4531 1.17139C19.1406 2.13493 18.5417 2.89014 17.6562 3.43701C18.4375 3.33285 19.2188 3.11149 20 2.77295C19.4271 3.60628 18.737 4.32243 17.9297 4.92139Z"/>
</symbol>

<symbol id="instagram" viewBox="0 0 18 18" xmlns="http://www.w3.org/2000/svg">
<path d="M9 4.4917C8.19271 4.4917 7.4375 4.70003 6.73438 5.1167C6.05729 5.50732 5.51042 6.0542 5.09375 6.75732C4.70312 7.43441 4.50781 8.1766 4.50781 8.98389C4.50781 9.79118 4.70312 10.5464 5.09375 11.2495C5.51042 11.9266 6.05729 12.4735 6.73438 12.8901C7.4375 13.2808 8.19271 13.4761 9 13.4761C9.80729 13.4761 10.5495 13.2808 11.2266 12.8901C11.9297 12.4735 12.4766 11.9266 12.8672 11.2495C13.2839 10.5464 13.4922 9.79118 13.4922 8.98389C13.4922 8.1766 13.2839 7.43441 12.8672 6.75732C12.4766 6.0542 11.9297 5.50732 11.2266 5.1167C10.5495 4.70003 9.80729 4.4917 9 4.4917ZM9 11.9136C8.19271 11.9136 7.5026 11.6271 6.92969 11.0542C6.35677 10.4813 6.07031 9.79118 6.07031 8.98389C6.07031 8.1766 6.35677 7.48649 6.92969 6.91357C7.5026 6.34066 8.19271 6.0542 9 6.0542C9.80729 6.0542 10.4974 6.34066 11.0703 6.91357C11.6432 7.48649 11.9297 8.1766 11.9297 8.98389C11.9297 9.79118 11.6432 10.4813 11.0703 11.0542C10.4974 11.6271 9.80729 11.9136 9 11.9136ZM14.7422 4.29639C14.7161 4.58285 14.599 4.83024 14.3906 5.03857C14.2083 5.24691 13.974 5.35107 13.6875 5.35107C13.401 5.35107 13.1536 5.24691 12.9453 5.03857C12.737 4.83024 12.6328 4.58285 12.6328 4.29639C12.6328 4.00993 12.737 3.76253 12.9453 3.5542C13.1536 3.34587 13.401 3.2417 13.6875 3.2417C13.974 3.2417 14.2214 3.34587 14.4297 3.5542C14.638 3.76253 14.7422 4.00993 14.7422 4.29639ZM17.7109 5.35107C17.6589 4.59587 17.5417 3.94482 17.3594 3.39795C17.125 2.74691 16.7604 2.18701 16.2656 1.71826C15.7969 1.22347 15.237 0.858887 14.5859 0.624512C14.0391 0.44222 13.388 0.338053 12.6328 0.312012C11.9036 0.259928 10.6927 0.233887 9 0.233887C7.30729 0.233887 6.08333 0.259928 5.32812 0.312012C4.59896 0.338053 3.96094 0.44222 3.41406 0.624512C2.76302 0.858887 2.1901 1.22347 1.69531 1.71826C1.22656 2.18701 0.875 2.74691 0.640625 3.39795C0.458333 3.94482 0.341146 4.59587 0.289062 5.35107C0.263021 6.08024 0.25 7.29118 0.25 8.98389C0.25 10.6766 0.263021 11.9006 0.289062 12.6558C0.341146 13.3849 0.458333 14.0229 0.640625 14.5698C0.875 15.2209 1.22656 15.7938 1.69531 16.2886C2.1901 16.7573 2.76302 17.0959 3.41406 17.3042C3.96094 17.5125 4.59896 17.6297 5.32812 17.6558C6.08333 17.7078 7.30729 17.7339 9 17.7339C10.6927 17.7339 11.9036 17.7078 12.6328 17.6558C13.388 17.6297 14.0391 17.5256 14.5859 17.3433C15.237 17.1089 15.7969 16.7573 16.2656 16.2886C16.7604 15.7938 17.125 15.2209 17.3594 14.5698C17.5417 14.0229 17.6458 13.3849 17.6719 12.6558C17.724 11.9006 17.75 10.6766 17.75 8.98389C17.75 7.29118 17.737 6.08024 17.7109 5.35107ZM15.8359 14.1401C15.5234 14.9214 14.9635 15.4813 14.1562 15.8198C13.7396 15.9761 13.0365 16.0802 12.0469 16.1323C11.5 16.1584 10.6927 16.1714 9.625 16.1714H8.375C7.33333 16.1714 6.52604 16.1584 5.95312 16.1323C4.98958 16.0802 4.28646 15.9761 3.84375 15.8198C3.0625 15.5073 2.5026 14.9474 2.16406 14.1401C2.00781 13.6974 1.90365 12.9943 1.85156 12.0308C1.82552 11.4578 1.8125 10.6506 1.8125 9.60889V8.35889C1.8125 7.31722 1.82552 6.50993 1.85156 5.93701C1.90365 4.94743 2.00781 4.2443 2.16406 3.82764C2.47656 3.02035 3.03646 2.46045 3.84375 2.14795C4.28646 1.9917 4.98958 1.88753 5.95312 1.83545C6.52604 1.80941 7.33333 1.79639 8.375 1.79639H9.625C10.6667 1.79639 11.474 1.80941 12.0469 1.83545C13.0365 1.88753 13.7396 1.9917 14.1562 2.14795C14.9635 2.46045 15.5234 3.02035 15.8359 3.82764C15.9922 4.2443 16.0964 4.94743 16.1484 5.93701C16.1745 6.48389 16.1875 7.29118 16.1875 8.35889V9.60889C16.1875 10.6506 16.1745 11.4578 16.1484 12.0308C16.0964 12.9943 15.9922 13.6974 15.8359 14.1401Z"/>
</symbol>







<symbol id="point" viewBox="0 0 11 14" xmlns="http://www.w3.org/2000/svg">
<path d="M5.2954 0.333496C2.61373 0.333496 0.431797 2.72616 0.431797 5.6635C0.414166 9.96016 5.11058 13.5228 5.2954 13.6668C5.2954 13.6668 10.1766 9.96016 10.159 5.66683C10.159 2.72616 7.97707 0.333496 5.2954 0.333496ZM5.2954 8.3335C3.95183 8.3335 2.8636 7.14016 2.8636 5.66683C2.8636 4.1935 3.95183 3.00016 5.2954 3.00016C6.63897 3.00016 7.7272 4.1935 7.7272 5.66683C7.7272 7.14016 6.63897 8.3335 5.2954 8.3335Z"/>
</symbol>

<symbol id="phone" viewBox="0 0 10 11" xmlns="http://www.w3.org/2000/svg">
<path d="M8.99236 9.14688L7.70664 10.6853C7.51685 10.9201 7.26529 10.9996 7.0203 11C5.93685 10.9608 4.91274 10.3189 4.07188 9.65969C2.69167 8.4485 1.42526 6.94668 0.630445 5.13179C0.325604 4.37075 -0.0320839 3.39971 0.00209048 2.55025C0.00513783 2.2307 0.0765264 1.91708 0.263099 1.7111L1.54881 0.161011C1.81579 -0.112916 2.07398 -0.0182063 2.24483 0.300867L3.27918 2.6668C3.38805 2.94709 3.3256 3.24741 3.16317 3.44769L2.68949 4.01877C2.66025 4.06709 2.64163 4.12209 2.64116 4.18195C2.8228 5.03007 3.37307 5.81177 3.85919 6.34974C4.3453 6.88771 4.86782 7.61655 5.54608 7.7891C5.62991 7.8173 5.7326 7.82721 5.79259 7.75996L6.34362 7.08398C6.53357 6.91032 6.80783 6.82543 7.01062 6.96743H7.02029L8.88601 8.29608C9.1599 8.50317 9.18846 8.90339 8.99236 9.14688Z"/>
</symbol>

<symbol id="everlope" viewBox="0 0 14 12" xmlns="http://www.w3.org/2000/svg">
<path d="M13.1033 0.666791C13.0481 0.660549 12.9924 0.660549 12.9372 0.666791H1.58877C1.51603 0.66802 1.44378 0.679979 1.37396 0.702347L7.23055 7.0979L13.1033 0.666791Z"/>
<path d="M13.7032 1.2844L7.80202 7.72885C7.65015 7.8944 7.4447 7.98733 7.23055 7.98733C7.0164 7.98733 6.81095 7.8944 6.65908 7.72885L0.810598 1.33329C0.792618 1.40576 0.783085 1.48042 0.782227 1.55552V10.4444C0.782227 10.6802 0.867629 10.9062 1.01965 11.0729C1.17166 11.2396 1.37784 11.3333 1.59283 11.3333H12.9412C13.1562 11.3333 13.3624 11.2396 13.5144 11.0729C13.6664 10.9062 13.7518 10.6802 13.7518 10.4444V1.55552C13.7486 1.46292 13.7322 1.37144 13.7032 1.2844ZM2.14809 10.4444H1.58472V9.80885L4.53125 6.6044L5.10273 7.23107L2.14809 10.4444ZM12.9331 10.4444H12.3657L9.41107 7.23107L9.98254 6.6044L12.9291 9.80885L12.9331 10.4444Z"/>
</symbol>






</svg>

